ModelForces
version=1
nRows=4
nColumns=158
inDegrees=no

This file contains the forces exerted on a model during a simulation.

A force is a generalized force, meaning that it can be either a force (N) or a torque (Nm).

Units are S.I. units (second, meters, Newtons, ...)
Angles are in degrees.

endheader
time	glut_med1_r	glut_med2_r	glut_med3_r	glut_min1_r	glut_min2_r	glut_min3_r	semimem_r	semiten_r	bifemlh_r	bifemsh_r	sar_r	add_long_r	add_brev_r	add_mag1_r	add_mag2_r	add_mag3_r	tfl_r	pect_r	grac_r	glut_max1_r	glut_max2_r	glut_max3_r	iliacus_r	psoas_r	quad_fem_r	gem_r	peri_r	rect_fem_r	vas_med_r	vas_int_r	vas_lat_r	med_gas_r	lat_gas_r	soleus_r	tib_post_r	flex_dig_r	flex_hal_r	tib_ant_r	per_brev_r	per_long_r	per_tert_r	ext_dig_r	ext_hal_r	glut_med1_l	glut_med2_l	glut_med3_l	glut_min1_l	glut_min2_l	glut_min3_l	semimem_l	semiten_l	bifemlh_l	bifemsh_l	sar_l	add_long_l	add_brev_l	add_mag1_l	add_mag2_l	add_mag3_l	tfl_l	pect_l	grac_l	glut_max1_l	glut_max2_l	glut_max3_l	iliacus_l	psoas_l	quad_fem_l	gem_l	peri_l	rect_fem_l	vas_med_l	vas_int_l	vas_lat_l	med_gas_l	lat_gas_l	soleus_l	tib_post_l	flex_dig_l	flex_hal_l	tib_ant_l	per_brev_l	per_long_l	per_tert_l	ext_dig_l	ext_hal_l	ercspn_r	ercspn_l	intobl_r	intobl_l	extobl_r	extobl_l	femur_lat_meniscii_r.femur_lat_r.force.X	femur_lat_meniscii_r.femur_lat_r.force.Y	femur_lat_meniscii_r.femur_lat_r.force.Z	femur_lat_meniscii_r.femur_lat_r.torque.X	femur_lat_meniscii_r.femur_lat_r.torque.Y	femur_lat_meniscii_r.femur_lat_r.torque.Z	femur_lat_meniscii_r.meniscus_lat_r.force.X	femur_lat_meniscii_r.meniscus_lat_r.force.Y	femur_lat_meniscii_r.meniscus_lat_r.force.Z	femur_lat_meniscii_r.meniscus_lat_r.torque.X	femur_lat_meniscii_r.meniscus_lat_r.torque.Y	femur_lat_meniscii_r.meniscus_lat_r.torque.Z	femur_med_meniscii_r.femur_med_r.force.X	femur_med_meniscii_r.femur_med_r.force.Y	femur_med_meniscii_r.femur_med_r.force.Z	femur_med_meniscii_r.femur_med_r.torque.X	femur_med_meniscii_r.femur_med_r.torque.Y	femur_med_meniscii_r.femur_med_r.torque.Z	femur_med_meniscii_r.meniscus_med_r.force.X	femur_med_meniscii_r.meniscus_med_r.force.Y	femur_med_meniscii_r.meniscus_med_r.force.Z	femur_med_meniscii_r.meniscus_med_r.torque.X	femur_med_meniscii_r.meniscus_med_r.torque.Y	femur_med_meniscii_r.meniscus_med_r.torque.Z	femur_med_tibia_r.tibia_upper_r.force.X	femur_med_tibia_r.tibia_upper_r.force.Y	femur_med_tibia_r.tibia_upper_r.force.Z	femur_med_tibia_r.tibia_upper_r.torque.X	femur_med_tibia_r.tibia_upper_r.torque.Y	femur_med_tibia_r.tibia_upper_r.torque.Z	femur_med_tibia_r.femur_med_r.force.X	femur_med_tibia_r.femur_med_r.force.Y	femur_med_tibia_r.femur_med_r.force.Z	femur_med_tibia_r.femur_med_r.torque.X	femur_med_tibia_r.femur_med_r.torque.Y	femur_med_tibia_r.femur_med_r.torque.Z	femur_lat_tibia_r.tibia_upper_r.force.X	femur_lat_tibia_r.tibia_upper_r.force.Y	femur_lat_tibia_r.tibia_upper_r.force.Z	femur_lat_tibia_r.tibia_upper_r.torque.X	femur_lat_tibia_r.tibia_upper_r.torque.Y	femur_lat_tibia_r.tibia_upper_r.torque.Z	femur_lat_tibia_r.femur_lat_r.force.X	femur_lat_tibia_r.femur_lat_r.force.Y	femur_lat_tibia_r.femur_lat_r.force.Z	femur_lat_tibia_r.femur_lat_r.torque.X	femur_lat_tibia_r.femur_lat_r.torque.Y	femur_lat_tibia_r.femur_lat_r.torque.Z	aACL_R	pACL_R	aPCL_R	pPCL_R	aMCL_R	mMCL_R	pMCL_R	aLCL_R	mLCL_R	pLCL_R	aPCL_L	pPCL_L	aMCL_L	aLCL_L	ground_prescribedForce_-90_fx	ground_prescribedForce_-90_fy	ground_prescribedForce_-90_fz
      0.48379789	      7.60770706	      5.70692228	      6.10933273	      2.67743332	      3.19895455	      3.21796685	      0.00000000	      3.16304444	      3.53881175	      5.18048138	      1.47773384	      5.65454601	      4.16960763	      2.93997736	      2.47184392	      4.02008545	      2.87309677	      2.25438712	      1.37267235	      3.68261770	      5.59646460	      4.17817572	     22.72224957	     13.05079187	      3.65245483	      2.86638232	      4.13828959	    246.42322563	     43.44642409	     86.98123782	     63.18568482	      0.00000000	      0.00000000	     11.88530655	     11.47147439	      2.08650013	      2.78578277	     12.06254225	      3.97226034	      7.96085091	      8.13583767	      7.27630644	      1.93964091	      7.60770706	      5.70692228	      6.10933273	      2.67743332	      3.19895455	      3.21796685	      8.83233374	      4.11525034	      7.75533832	      7.26734778	      1.53026732	      5.65454601	      4.16960763	      2.93997736	      2.47184392	      4.02008545	      4.11719858	      2.25438712	      1.56968396	      3.68261770	      5.59646460	      4.17817572	     22.72224957	     13.05079187	      3.65245483	      2.86638232	      4.13828959	     10.76581261	      6.64168348	      7.61963213	      8.19284855	     14.17157699	      6.58036266	     31.45275070	     42.50249354	      2.77778415	      2.95099724	      8.52601607	      4.37855717	     12.55480912	      2.01890640	      5.32767373	      1.69225922	     25.18095230	     25.18095230	      9.06851375	      9.06851375	     26.86615151	     26.86615151	    206.78608789	      2.96240199	     37.19018328	    -15.10459684	      5.08908541	     84.02749808	   -206.78608789	     -2.96240199	    -37.19018328	      0.17644060	     -7.04101866	     -0.86798754	     68.24284649	    -45.03359215	    -13.77245684	      4.73626417	     -1.24599473	     27.49255655	    -68.24284649	     45.03359215	     13.77245684	      0.60183294	      1.34200724	     -1.35610479	   -598.18143163	     38.71320245	     95.02424150	      0.20429151	     10.42017856	     -2.92653141	    598.18143163	    -38.71320245	    -95.02424150	     37.80367912	    -10.30888006	    242.14289561	    -53.90962151	     -9.61848916	    -15.57120675	      0.34648198	     -2.00635756	      0.03996420	     53.90962151	      9.61848916	     15.57120675	     -6.56050765	      1.33050727	     21.89131167	     46.24856717	     19.89014591	    807.83139667	    393.23068093	     12.67883623	     -0.28886562	      0.00000000	      0.00000000	      0.00000000	      0.00000000	      0.00000000	      0.00000000	      0.00000001	      0.00000000	      0.00000000	   -110.00000000	      0.00000000
      0.48665287	      7.60546116	      5.70537531	      6.10765614	      2.67673834	      3.19820273	      3.21701880	      0.00000000	      3.16529828	      3.54282952	      5.17786842	      1.47889869	      5.65299537	      4.16853514	      2.93918626	      2.47116294	      4.01885870	      2.86683392	      2.25379823	      1.37223467	      3.68162026	      5.59494417	      4.17701980	     22.71944436	     13.04763674	      3.65148614	      2.86592877	      4.13649168	    246.49151028	     43.57558442	     87.17014964	     63.33706009	      0.00000000	      0.00000000	     11.82863547	     11.44744674	      2.06637746	      2.74698263	     12.07017700	      3.96952032	      7.96543801	      8.16211984	      7.27657586	      1.97240010	      7.60546116	      5.70537531	      6.10765614	      2.67673834	      3.19820273	      3.21701880	      8.82906396	      4.11404708	      7.75261705	      7.26541917	      1.52987192	      5.65299537	      4.16853514	      2.93918626	      2.47116294	      4.01885870	      4.11643980	      2.25379823	      1.56927134	      3.68162026	      5.59494417	      4.17701980	     22.71944436	     13.04763674	      3.65148614	      2.86592877	      4.13649168	     10.76210873	      6.63984196	      7.61747867	      8.19054479	     14.16365663	      6.57667937	     31.43911648	     42.49714727	      2.77522027	      2.94914278	      8.52322859	      4.37688822	     12.55081075	      2.01841698	      5.32636454	      1.69188362	     25.17440118	     25.17440118	      9.06594451	      9.06594451	     26.86384367	     26.86384367	    205.19019655	      3.30822156	     38.18237230	    -15.51557800	      5.06617186	     83.37435192	   -205.19019655	     -3.30822156	    -38.18237230	      0.19033600	     -7.03918403	     -0.84630586	     67.84357376	    -45.10335051	    -13.45038271	      4.60661765	     -1.23752479	     27.33455323	    -67.84357376	     45.10335051	     13.45038271	      0.60184413	      1.32625238	     -1.36066412	   -608.44535044	     38.83185507	     96.73804422	      0.20044448	     10.59662728	     -2.95978920	    608.44535044	    -38.83185507	    -96.73804422	     38.49550874	    -10.47986221	    246.29568466	    -55.14679517	     -9.89531504	    -16.06783919	      0.35677089	     -2.05811241	      0.04320043	     55.14679517	      9.89531504	     16.06783919	     -6.76912068	      1.36283443	     22.39295488	     46.62588624	     20.36932778	    808.46809834	    395.54052073	     14.57842817	      1.70978012	      0.00000000	      0.00000000	      0.00000000	      0.00000000	      0.00000000	      0.00000000	      0.00000001	      0.00000000	      0.00000000	   -110.00000000	      0.00000000
      0.48950784	      7.60329643	      5.70388423	      6.10604012	      2.67606845	      3.19747807	      3.21610501	      0.00000000	      3.16068550	      3.53586413	      5.17510977	      1.47787141	      5.65150075	      4.16750137	      2.93842373	      2.47050655	      4.01767628	      2.87198550	      2.25323061	      1.37154272	      3.68065885	      5.59347867	      4.17590565	     22.71674050	     13.04459568	      3.65055243	      2.86549162	      4.13475796	    246.30002076	     43.40068004	     86.87497988	     63.14983342	      0.00000000	      0.00000000	     11.84703912	     11.43601631	      2.05125449	      2.71173882	     12.05377957	      3.96848583	      7.97210771	      8.17813370	      7.26163147	      1.99847952	      7.60329643	      5.70388423	      6.10604012	      2.67606845	      3.19747807	      3.21610501	      8.82591213	      4.11288730	      7.74999404	      7.26356023	      1.52949080	      5.65150075	      4.16750137	      2.93842373	      2.47050655	      4.01767628	      4.11570847	      2.25323061	      1.56887362	      3.68065885	      5.59347867	      4.17590565	     22.71674050	     13.04459568	      3.65055243	      2.86549162	      4.13475796	     10.75853863	      6.63806699	      7.61540303	      8.18832429	     14.15600827	      6.57312254	     31.42596941	     42.49199302	      2.77268864	      2.94732259	      8.52054185	      4.37527939	     12.54695343	      2.01794526	      5.32514141	      1.69153340	     25.16808663	     25.16808663	      9.06346811	      9.06346811	     26.86161923	     26.86161923	    205.83362582	      3.04969487	     37.53492270	    -15.24687448	      5.07195972	     83.63837443	   -205.83362582	     -3.04969487	    -37.53492270	      0.18066773	     -7.02865828	     -0.85948286	     67.92185075	    -45.00360495	    -13.64222371	      4.68478976	     -1.23985482	     27.36471322	    -67.92185075	     45.00360495	     13.64222371	      0.60128423	      1.33385194	     -1.35651056	   -598.16454777	     38.69005147	     94.75958509	      0.20485143	     10.41313012	     -2.92605628	    598.16454777	    -38.69005147	    -94.75958509	     37.69685666	    -10.30666698	    242.13498685	    -53.14547630	     -9.51144657	    -15.40325328	      0.34265128	     -1.97995591	      0.04055083	     53.14547630	      9.51144657	     15.40325328	     -6.48967369	      1.31242164	     21.58057325	     46.43426983	     20.13883940	    808.50598055	    394.57554705	     13.57520727	      0.64684461	      0.00000000	      0.00000000	      0.00000000	      0.00000000	      0.00000000	      0.00000000	      0.00000001	      0.00000000	      0.00000000	   -110.00000000	      0.00000000
      0.49236281	      7.60120992	      5.70244701	      6.10448248	      2.67542276	      3.19677958	      3.21522424	      0.00000000	      3.16396262	      3.54117763	      5.17788690	      1.47780806	      5.65006012	      4.16650494	      2.93768875	      2.46987389	      4.01653661	      2.86613625	      2.25268349	      1.37203187	      3.67973218	      5.59206612	      4.17483175	     22.71413433	     13.04166454	      3.64965245	      2.86507027	      4.13308617	    246.49566373	     43.56697450	     87.16743329	     63.33459531	      0.00000000	      0.00000000	     11.78491052	     11.41943134	      2.03882655	      2.67603965	     12.06429373	      3.96307588	      7.97193024	      8.20765552	      7.24872424	      2.02386648	      7.60120992	      5.70244701	      6.10448248	      2.67542276	      3.19677958	      3.21522424	      8.82287398	      4.11176943	      7.74746574	      7.26176843	      1.52912344	      5.65006012	      4.16650494	      2.93768875	      2.46987389	      4.01653661	      4.11500357	      2.25268349	      1.56849027	      3.67973218	      5.59206612	      4.17483175	     22.71413433	     13.04166454	      3.64965245	      2.86507027	      4.13308617	     10.75509746	      6.63635615	      7.61340240	      8.18618404	     14.14862278	      6.56968792	     31.41329221	     42.48702390	      2.77018792	      2.94553545	      8.51795218	      4.37372851	     12.54323225	      2.01749058	      5.32400099	      1.69120752	     25.16200012	     25.16200012	      9.06108118	      9.06108118	     26.85947516	     26.85947516	    205.88746235	      3.12431284	     37.94076450	    -15.41352993	      5.07836584	     83.65948268	   -205.88746235	     -3.12431284	    -37.94076450	      0.18462261	     -7.04671847	     -0.85696482	     68.10594983	    -45.06697485	    -13.49983698	      4.62683487	     -1.24201005	     27.43839671	    -68.10594983	     45.06697485	     13.49983698	      0.60179741	      1.33126195	     -1.35818139	   -608.23460844	     38.95048533	     96.64339570	      0.20218050	     10.59470078	     -2.96403307	    608.23460844	    -38.95048533	    -96.64339570	     38.45518606	    -10.47743261	    246.21066559	    -54.26908457	     -9.71521951	    -15.76679586	      0.35019988	     -2.02325238	      0.04149851	     54.26908457	      9.71521951	     15.76679586	     -6.64239135	      1.34054461	     22.03680644	     46.32520378	     20.03397394	    808.26022369	    394.53893641	     13.72495679	      0.83369773	      0.00000000	      0.00000000	      0.00000000	      0.00000000	      0.00000000	      0.00000000	      0.00000001	      0.00000000	      0.00000000	   -110.00000000	      0.00000000
